<svg xmlns="http://www.w3.org/2000/svg" width="10" height="6" viewBox="0 0 10 6">
  <defs>
    <style>
      .cls-1 {
        fill: #2ac3ff;
        fill-rule: evenodd;
      }
    </style>
  </defs>
  <path id="Shape_1_copy_2" data-name="Shape 1 copy 2" class="cls-1" d="M1295.84,385.5l-0.33-.335a0.532,0.532,0,0,0-.38-0.162,0.537,0.537,0,0,0-.39.162l-3.74,3.8-3.74-3.8a0.537,0.537,0,0,0-.39-0.162,0.532,0.532,0,0,0-.38.162l-0.33.333a0.569,0.569,0,0,0,0,.786l4.45,4.541a0.572,0.572,0,0,0,.39.178h0a0.553,0.553,0,0,0,.39-0.178l4.45-4.529A0.57,0.57,0,0,0,1295.84,385.5Z" transform="translate(-1286 -385)"/>
</svg>
