<?xml version="1.0" encoding="utf-8"?>
<!-- Generator: Adobe Illustrator 16.0.0, SVG Export Plug-In . SVG Version: 6.00 Build 0)  -->
<!DOCTYPE svg PUBLIC "-//W3C//DTD SVG 1.1//EN" "http://www.w3.org/Graphics/SVG/1.1/DTD/svg11.dtd">
<svg version="1.1" id="Layer_1" xmlns="http://www.w3.org/2000/svg" xmlns:xlink="http://www.w3.org/1999/xlink" x="0px" y="0px"
	 width="200px" height="200px" viewBox="0 0 200 200" enable-background="new 0 0 200 200" xml:space="preserve">
<circle fill="#E2E5EC" cx="100" cy="100" r="100"/>
<g>
	<path fill="#B4B8CE" d="M99.448,98.4c5.786,0,10.796-2.075,14.89-6.17c4.095-4.093,6.169-9.103,6.169-14.889
		c0-5.785-2.074-10.794-6.169-14.889c-4.096-4.094-9.104-6.168-14.89-6.168c-5.786,0-10.796,2.074-14.889,6.169
		c-4.094,4.093-6.17,9.103-6.17,14.888c0,5.786,2.076,10.796,6.171,14.89C88.654,96.324,93.664,98.4,99.448,98.4z"/>
	<path fill="#B4B8CE" d="M136.294,123.514c-0.117-1.704-0.355-3.562-0.708-5.524c-0.354-1.977-0.812-3.846-1.358-5.556
		c-0.564-1.765-1.333-3.508-2.284-5.179c-0.984-1.734-2.144-3.244-3.442-4.487c-1.358-1.3-3.022-2.346-4.946-3.107
		c-1.918-0.759-4.041-1.143-6.314-1.143c-0.892,0-1.755,0.366-3.422,1.451c-1.025,0.669-2.225,1.443-3.565,2.299
		c-1.146,0.729-2.697,1.413-4.612,2.031c-1.871,0.605-3.769,0.913-5.643,0.913s-3.771-0.308-5.644-0.913
		c-1.914-0.617-3.466-1.301-4.609-2.031c-1.327-0.848-2.527-1.621-3.568-2.299c-1.666-1.086-2.529-1.452-3.422-1.452
		c-2.272,0-4.396,0.385-6.313,1.144c-1.923,0.761-3.587,1.807-4.946,3.108c-1.299,1.243-2.458,2.753-3.442,4.486
		c-0.948,1.671-1.717,3.414-2.283,5.18c-0.546,1.71-1.003,3.578-1.358,5.555c-0.351,1.959-0.59,3.818-0.708,5.527
		c-0.116,1.672-0.175,3.408-0.175,5.161c0,4.565,1.451,8.259,4.313,10.984c2.825,2.688,6.563,4.053,11.11,4.053h42.098
		c4.547,0,8.284-1.364,11.11-4.053c2.861-2.724,4.313-6.419,4.313-10.984C136.471,126.916,136.411,125.178,136.294,123.514z"/>
</g>
</svg>
